<svg width="32" height="32" viewBox="0 0 32 32" fill="none" xmlns="http://www.w3.org/2000/svg">
<rect width="32" height="32" rx="4" fill="#08A652"/>
<rect x="3.2002" y="3.20001" width="25.6" height="25.6" rx="8" fill="#08A652"/>
<path d="M8.15185 20L6.408 17.1066L8.13893 14.2H6.7826L5 17.1332L6.75677 20H8.15185Z" fill="white"/>
<path d="M11.0327 20L9.28886 17.1066L11.0198 14.2H9.66347L7.88086 17.1332L9.63763 20H11.0327Z" fill="white"/>
<path d="M19.0674 20.5591V19.2769H14.7788V16.5422H18.6669V15.2861H14.7788V12.6823H19.0674V11.4H13.332V20.5591H19.0674Z" fill="white"/>
<path d="M25.1385 20L26.8823 17.1332L25.0997 14.2H23.7434L25.4872 17.1066L23.7305 20H25.1385Z" fill="white"/>
<path d="M22.2576 20L24.0015 17.1332L22.2189 14.2H20.8625L22.6064 17.1066L20.8496 20H22.2576Z" fill="white"/>
<path d="M14.8 10.6C15.2418 10.6 15.6 10.2418 15.6 9.8C15.6 9.35817 15.2418 9 14.8 9C14.3582 9 14 9.35817 14 9.8C14 10.2418 14.3582 10.6 14.8 10.6Z" fill="white"/>
<path d="M17.3996 10.6C17.8414 10.6 18.1996 10.2418 18.1996 9.8C18.1996 9.35817 17.8414 9 17.3996 9C16.9578 9 16.5996 9.35817 16.5996 9.8C16.5996 10.2418 16.9578 10.6 17.3996 10.6Z" fill="white"/>
</svg>
