<?xml version="1.0" encoding="UTF-8"?>
<svg width="110px" height="58px" viewBox="0 0 110 58" version="1.1" xmlns="http://www.w3.org/2000/svg" xmlns:xlink="http://www.w3.org/1999/xlink">
    <!-- Generator: Sketch 64 (93537) - https://sketch.com -->
    <title>Group 11</title>
    <desc>Created with Sketch.</desc>
    <g id="Page-1" stroke="none" stroke-width="1" fill="none" fill-rule="evenodd">
        <g id="Group-9" transform="translate(-9.000000, -29.000000)" fill="#FFFFFF">
            <g id="Group-11" transform="translate(9.000000, 29.000000)">
                <g id="Group-10" transform="translate(0.000000, 12.000000)" fill-rule="nonzero">
                    <polygon id="Path" points="15.7592661 43 7.04 28.5331808 15.6946789 14 8.91302752 14 2.06057393e-13 28.6659039 8.78385321 43"></polygon>
                    <polygon id="Path" points="30.1622018 43 21.4429358 28.5331808 30.0976147 14 23.3159633 14 14.4029358 28.6659039 23.186789 43"></polygon>
                    <polygon id="Path" points="70.3354128 45.7955556 70.3354128 39.3841778 48.8924771 39.3841778 48.8924771 25.7109333 68.333211 25.7109333 68.333211 19.4304 48.8924771 19.4304 48.8924771 6.41137778 70.3354128 6.41137778 70.3354128 -3.77692939e-13 41.6587156 -3.77692939e-13 41.6587156 45.7955556"></polygon>
                    <polygon id="Path" points="100.691376 43 109.410642 28.6659039 100.497615 14 93.7159633 14 102.435229 28.5331808 93.6513761 43"></polygon>
                    <polygon id="Path" points="86.2884404 43 95.0077064 28.6659039 86.0946789 14 79.3130275 14 88.0322936 28.5331808 79.2484404 43"></polygon>
                </g>
                <circle id="Oval" cx="49" cy="4" r="4"></circle>
                <circle id="Oval" cx="62" cy="4" r="4"></circle>
            </g>
        </g>
    </g>
</svg>